<?xml version="1.0" standalone="yes"?>

<svg version="1.1" viewBox="0.0 0.0 800.0 800.0" fill="none" stroke="none" stroke-linecap="square" stroke-miterlimit="10" xmlns="http://www.w3.org/2000/svg" xmlns:xlink="http://www.w3.org/1999/xlink"><clipPath id="p.0"><path d="m0 0l800.0 0l0 800.0l-800.0 0l0 -800.0z" clip-rule="nonzero"></path></clipPath><g clip-path="url(#p.0)"><path fill="#000000" fill-opacity="0.0" d="m0 0l800.0 0l0 800.0l-800.0 0z" fill-rule="nonzero"></path><path fill="#00ff00" d="m46.3585 363.0921l27.031826 42.736694l0 31.05835l14.849884 0l0 -30.957672l27.1325 -42.83737l-17.165459 0l-17.014442 29.195862l-17.366817 -29.195862z" fill-rule="evenodd"></path><path stroke="#000000" stroke-width="2.0" stroke-linejoin="round" stroke-linecap="butt" d="m46.3585 363.0921l27.031826 42.736694l0 31.05835l14.849884 0l0 -30.957672l27.1325 -42.83737l-17.165459 0l-17.014442 29.195862l-17.366817 -29.195862z" fill-rule="evenodd"></path><path fill="#00ff00" d="m115.32738 400.0l25.549866 -25.549866l0 12.774933l518.2455 0l0 -12.774933l25.549866 25.549866l-25.549866 25.549866l0 -12.774933l-518.2455 0l0 12.774933z" fill-rule="nonzero"></path><path stroke="#000000" stroke-width="2.0" stroke-linejoin="round" stroke-linecap="butt" d="m115.32738 400.0l25.549866 -25.549866l0 12.774933l518.2455 0l0 -12.774933l25.549866 25.549866l-25.549866 25.549866l0 -12.774933l-518.2455 0l0 12.774933z" fill-rule="nonzero"></path><path fill="#ff0000" d="m400.0 115.32738l25.549866 25.549866l-12.774933 0l0 518.2455l12.774933 0l-25.549866 25.549866l-25.549866 -25.549866l12.774933 0l0 -518.2455l-12.774933 0z" fill-rule="nonzero"></path><path stroke="#000000" stroke-width="2.0" stroke-linejoin="round" stroke-linecap="butt" d="m400.0 115.32738l25.549866 25.549866l-12.774933 0l0 518.2455l12.774933 0l-25.549866 25.549866l-25.549866 -25.549866l12.774933 0l0 -518.2455l-12.774933 0z" fill-rule="nonzero"></path><path fill="#0000ff" d="m375.1496 400.0l0 0c0 -13.724487 11.125916 -24.850403 24.850403 -24.850403l0 0c6.5907288 0 12.91153 2.618164 17.571869 7.278534c4.66037 4.6603394 7.278534 10.98114 7.278534 17.571869l0 0c0 13.724487 -11.125916 24.850403 -24.850403 24.850403l0 0c-13.724487 0 -24.850403 -11.125916 -24.850403 -24.850403z" fill-rule="nonzero"></path><path stroke="#000000" stroke-width="2.0" stroke-linejoin="round" stroke-linecap="butt" d="m375.1496 400.0l0 0c0 -13.724487 11.125916 -24.850403 24.850403 -24.850403l0 0c6.5907288 0 12.91153 2.618164 17.571869 7.278534c4.66037 4.6603394 7.278534 10.98114 7.278534 17.571869l0 0c0 13.724487 -11.125916 24.850403 -24.850403 24.850403l0 0c-13.724487 0 -24.850403 -11.125916 -24.850403 -24.850403z" fill-rule="nonzero"></path><path fill="#ff0000" d="m368.03543 41.51335l22.85373 35.286728l-25.219635 38.50833l17.870209 0l16.41037 -25.52121l16.360046 25.52121l17.970886 0l-25.219635 -37.95462l22.954407 -35.84044l-17.266144 0l-14.497528 23.709053l-14.79953 -23.709053z" fill-rule="evenodd"></path><path stroke="#000000" stroke-width="2.0" stroke-linejoin="round" stroke-linecap="butt" d="m368.03543 41.51335l22.85373 35.286728l-25.219635 38.50833l17.870209 0l16.41037 -25.52121l16.360046 25.52121l17.970886 0l-25.219635 -37.95462l22.954407 -35.84044l-17.266144 0l-14.497528 23.709053l-14.79953 -23.709053z" fill-rule="evenodd"></path></g></svg>

